<?xml version="1.0" encoding="UTF-8" ?>
<svg version="1.1" width="128" height="128" xmlns="http://www.w3.org/2000/svg" shape-rendering="crispEdges">
<rect x="36" y="8" width="40" height="4" fill="#721300" />
<rect x="24" y="12" width="12" height="4" fill="#721300" />
<rect x="36" y="12" width="40" height="4" fill="#E42500" />
<rect x="76" y="12" width="8" height="4" fill="#721300" />
<rect x="16" y="16" width="8" height="4" fill="#721300" />
<rect x="24" y="16" width="12" height="4" fill="#E42500" />
<rect x="36" y="16" width="40" height="4" fill="#FF5331" />
<rect x="76" y="16" width="8" height="4" fill="#E42500" />
<rect x="84" y="16" width="8" height="4" fill="#721300" />
<rect x="12" y="20" width="4" height="4" fill="#721300" />
<rect x="16" y="20" width="8" height="4" fill="#E42500" />
<rect x="24" y="20" width="16" height="4" fill="#FF5331" />
<rect x="40" y="20" width="32" height="4" fill="#FFA28F" />
<rect x="72" y="20" width="20" height="4" fill="#FF5331" />
<rect x="92" y="20" width="8" height="4" fill="#721300" />
<rect x="8" y="24" width="4" height="4" fill="#721300" />
<rect x="12" y="24" width="8" height="8" fill="#E42500" />
<rect x="20" y="24" width="12" height="4" fill="#FF5331" />
<rect x="32" y="24" width="16" height="4" fill="#FFA28F" />
<rect x="48" y="24" width="20" height="4" fill="#FF5331" />
<rect x="68" y="24" width="12" height="4" fill="#FFA28F" />
<rect x="80" y="24" width="20" height="4" fill="#FF5331" />
<rect x="100" y="24" width="4" height="4" fill="#721300" />
<rect x="4" y="28" width="4" height="4" fill="#721300" />
<rect x="8" y="28" width="4" height="4" fill="#E42500" />
<rect x="20" y="28" width="20" height="4" fill="#FFA28F" />
<rect x="40" y="28" width="8" height="20" fill="#FF5331" />
<rect x="48" y="28" width="4" height="36" fill="#FFA28F" />
<rect x="52" y="28" width="20" height="4" fill="#FF5331" />
<rect x="72" y="28" width="12" height="4" fill="#FFA28F" />
<rect x="84" y="28" width="16" height="4" fill="#FF5331" />
<rect x="100" y="28" width="4" height="8" fill="#FFFFFF" />
<rect x="104" y="28" width="4" height="8" fill="#721300" />
<rect x="8" y="32" width="4" height="4" fill="#721300" />
<rect x="12" y="32" width="4" height="4" fill="#E42500" />
<rect x="16" y="32" width="4" height="8" fill="#FF5331" />
<rect x="20" y="32" width="16" height="4" fill="#FFA28F" />
<rect x="36" y="32" width="4" height="8" fill="#FF5331" />
<rect x="52" y="32" width="12" height="12" fill="#FF5331" />
<rect x="64" y="32" width="4" height="48" fill="#FFA28F" />
<rect x="68" y="32" width="12" height="4" fill="#FF5331" />
<rect x="80" y="32" width="8" height="4" fill="#FFA28F" />
<rect x="88" y="32" width="12" height="4" fill="#FF5331" />
<rect x="12" y="36" width="4" height="4" fill="#721300" />
<rect x="20" y="36" width="4" height="8" fill="#FF5331" />
<rect x="24" y="36" width="4" height="4" fill="#FFA28F" />
<rect x="28" y="36" width="8" height="16" fill="#FF5331" />
<rect x="68" y="36" width="8" height="4" fill="#FF5331" />
<rect x="76" y="36" width="4" height="8" fill="#FFA28F" />
<rect x="80" y="36" width="4" height="16" fill="#FF5331" />
<rect x="84" y="36" width="8" height="4" fill="#FFA28F" />
<rect x="92" y="36" width="12" height="4" fill="#FF5331" />
<rect x="104" y="36" width="4" height="4" fill="#FFFFFF" />
<rect x="108" y="36" width="4" height="8" fill="#721300" />
<rect x="16" y="40" width="4" height="4" fill="#721300" />
<rect x="24" y="40" width="4" height="8" fill="#FF5331" />
<rect x="36" y="40" width="4" height="12" fill="#FFA28F" />
<rect x="68" y="40" width="4" height="4" fill="#FF5331" />
<rect x="72" y="40" width="4" height="48" fill="#FFA28F" />
<rect x="84" y="40" width="4" height="8" fill="#FF5331" />
<rect x="88" y="40" width="8" height="4" fill="#FFA28F" />
<rect x="96" y="40" width="12" height="4" fill="#FF5331" />
<rect x="20" y="44" width="4" height="4" fill="#721300" />
<rect x="52" y="44" width="12" height="24" fill="#FFA28F" />
<rect x="68" y="44" width="4" height="40" fill="#FFA28F" />
<rect x="76" y="44" width="4" height="4" fill="#FF5331" />
<rect x="88" y="44" width="4" height="4" fill="#FF5331" />
<rect x="92" y="44" width="8" height="4" fill="#FFA28F" />
<rect x="100" y="44" width="12" height="4" fill="#FF5331" />
<rect x="112" y="44" width="4" height="8" fill="#721300" />
<rect x="24" y="48" width="4" height="4" fill="#721300" />
<rect x="40" y="48" width="4" height="8" fill="#FFA28F" />
<rect x="44" y="48" width="4" height="4" fill="#FF5331" />
<rect x="76" y="48" width="4" height="32" fill="#FFA28F" />
<rect x="84" y="48" width="8" height="4" fill="#FFA28F" />
<rect x="92" y="48" width="4" height="12" fill="#FF5331" />
<rect x="96" y="48" width="8" height="8" fill="#FFA28F" />
<rect x="104" y="48" width="4" height="8" fill="#FF5331" />
<rect x="108" y="48" width="4" height="4" fill="#E42500" />
<rect x="28" y="52" width="4" height="4" fill="#721300" />
<rect x="32" y="52" width="8" height="4" fill="#FF5331" />
<rect x="44" y="52" width="4" height="8" fill="#FFA28F" />
<rect x="80" y="52" width="8" height="4" fill="#FFA28F" />
<rect x="88" y="52" width="4" height="8" fill="#FF5331" />
<rect x="108" y="52" width="4" height="40" fill="#FF5331" />
<rect x="112" y="52" width="4" height="40" fill="#E42500" />
<rect x="116" y="52" width="4" height="40" fill="#721300" />
<rect x="32" y="56" width="4" height="4" fill="#721300" />
<rect x="36" y="56" width="8" height="4" fill="#FF5331" />
<rect x="80" y="56" width="4" height="24" fill="#FFA28F" />
<rect x="84" y="56" width="4" height="4" fill="#FF5331" />
<rect x="96" y="56" width="4" height="20" fill="#FF5331" />
<rect x="100" y="56" width="8" height="4" fill="#FFA28F" />
<rect x="36" y="60" width="4" height="4" fill="#721300" />
<rect x="40" y="60" width="8" height="4" fill="#FF5331" />
<rect x="84" y="60" width="12" height="4" fill="#FFA28F" />
<rect x="100" y="60" width="4" height="20" fill="#FF5331" />
<rect x="104" y="60" width="4" height="28" fill="#FFA28F" />
<rect x="40" y="64" width="4" height="4" fill="#721300" />
<rect x="44" y="64" width="8" height="4" fill="#FF5331" />
<rect x="84" y="64" width="12" height="12" fill="#FF5331" />
<rect x="44" y="68" width="4" height="4" fill="#721300" />
<rect x="48" y="68" width="8" height="4" fill="#FF5331" />
<rect x="56" y="68" width="8" height="4" fill="#FFA28F" />
<rect x="48" y="72" width="4" height="4" fill="#721300" />
<rect x="52" y="72" width="8" height="4" fill="#FF5331" />
<rect x="60" y="72" width="4" height="4" fill="#FFA28F" />
<rect x="52" y="76" width="4" height="4" fill="#721300" />
<rect x="56" y="76" width="8" height="4" fill="#FF5331" />
<rect x="84" y="76" width="16" height="4" fill="#FFA28F" />
<rect x="56" y="80" width="4" height="4" fill="#721300" />
<rect x="60" y="80" width="8" height="4" fill="#FF5331" />
<rect x="76" y="80" width="24" height="4" fill="#FF5331" />
<rect x="100" y="80" width="4" height="16" fill="#FFA28F" />
<rect x="60" y="84" width="4" height="4" fill="#721300" />
<rect x="64" y="84" width="8" height="4" fill="#FF5331" />
<rect x="76" y="84" width="4" height="8" fill="#FFA28F" />
<rect x="80" y="84" width="20" height="4" fill="#FF5331" />
<rect x="64" y="88" width="4" height="4" fill="#721300" />
<rect x="68" y="88" width="8" height="4" fill="#FF5331" />
<rect x="80" y="88" width="8" height="4" fill="#FFA28F" />
<rect x="88" y="88" width="8" height="4" fill="#FF5331" />
<rect x="96" y="88" width="4" height="20" fill="#FFA28F" />
<rect x="104" y="88" width="4" height="16" fill="#FF5331" />
<rect x="68" y="92" width="4" height="4" fill="#721300" />
<rect x="72" y="92" width="20" height="4" fill="#FF5331" />
<rect x="92" y="92" width="4" height="16" fill="#FFA28F" />
<rect x="108" y="92" width="4" height="12" fill="#E42500" />
<rect x="112" y="92" width="4" height="12" fill="#721300" />
<rect x="72" y="96" width="4" height="4" fill="#721300" />
<rect x="76" y="96" width="16" height="4" fill="#FF5331" />
<rect x="100" y="96" width="4" height="12" fill="#FF5331" />
<rect x="76" y="100" width="4" height="4" fill="#721300" />
<rect x="80" y="100" width="8" height="4" fill="#FF5331" />
<rect x="88" y="100" width="4" height="4" fill="#FFA28F" />
<rect x="80" y="104" width="4" height="4" fill="#721300" />
<rect x="84" y="104" width="8" height="4" fill="#FF5331" />
<rect x="104" y="104" width="4" height="8" fill="#E42500" />
<rect x="108" y="104" width="4" height="8" fill="#721300" />
<rect x="84" y="108" width="4" height="4" fill="#721300" />
<rect x="88" y="108" width="8" height="4" fill="#FF5331" />
<rect x="96" y="108" width="8" height="8" fill="#E42500" />
<rect x="88" y="112" width="4" height="4" fill="#721300" />
<rect x="92" y="112" width="4" height="4" fill="#E42500" />
<rect x="104" y="112" width="4" height="4" fill="#721300" />
<rect x="92" y="116" width="4" height="4" fill="#721300" />
<rect x="96" y="116" width="4" height="4" fill="#E42500" />
<rect x="100" y="116" width="4" height="4" fill="#721300" />
<rect x="96" y="120" width="4" height="4" fill="#721300" />
</svg>